<svg width="22" height="18" xmlns="http://www.w3.org/2000/svg">

 <g>
  <title>Layer 1</title>
  <g stroke-width="0.1" stroke="#FFFFFF" fill-rule="evenodd" id="abcdefg">
   <polygon fill="#000" points=" 1, 1  2, 0  8, 0  9, 1  8, 2  2, 2" id="1a"/>
   <polygon fill="#000" points=" 9, 1 10, 2 10, 8  9, 9  8, 8  8, 2" id="1b"/>
   <polygon fill="#ccc" fill-opacity=".5" points=" 9, 9 10,10 10,16  9,17  8,16  8,10" id="1c"/>
   <polygon fill="#000" points=" 9,17  8,18  2,18  1,17  2,16  8,16" id="1d"/>
   <polygon fill="#000" points=" 1,17  0,16  0,10  1, 9  2,10  2,16" id="1e"/>
   <polygon fill="#ccc" fill-opacity=".5" points=" 1, 9  0, 8  0, 2  1, 1  2, 2  2, 8" id="1f"/>
   <polygon fill="#000" points=" 1, 9  2, 8  8, 8  9, 9  8,10  2,10" id="1g"/>
  </g>
  <g stroke-width="0.1" stroke="#FFFFFF" fill-rule="evenodd" id="svg_8">
   <polygon fill="#ccc" fill-opacity=".5" points="12.408404186367989,1 13.408404186367989,0 19.408408001065254,0 20.408408001065254,1 19.408408001065254,2 13.408404186367989,2 " id="svg_1"/>
   <polygon fill="#000" points="20.408408001065254,1 21.408408001065254,2 21.408408001065254,8 20.408408001065254,9 19.408408001065254,8 19.408408001065254,2 " id="svg_2"/>
   <polygon fill="#000" points="20.408408001065254,9 21.408408001065254,10 21.408408001065254,16 20.408408001065254,17 19.408408001065254,16 19.408408001065254,10 " id="svg_3"/>
   <polygon fill="#ccc" fill-opacity=".5" points="20.408408001065254,17 19.408408001065254,18 13.408404186367989,18 12.408404186367989,17 13.408404186367989,16 19.408408001065254,16 " id="svg_4"/>
   <polygon fill="#ccc" fill-opacity=".5" points="12.408404186367989,17 11.408404186367989,16 11.408404186367989,10 12.408404186367989,9 13.408404186367989,10 13.408404186367989,16 " id="svg_5"/>
   <polygon fill="#000" points="12.408404186367989,9 11.408404186367989,8 11.408404186367989,2 12.408404186367989,1 13.408404186367989,2 13.408404186367989,8 " id="svg_6"/>
   <polygon fill="#000" points="12.408404186367989,9 13.408404186367989,8 19.408408001065254,8 20.408408001065254,9 19.408408001065254,10 13.408404186367989,10 " id="svg_7"/>
  </g>
 </g>
</svg>